<?xml version="1.0" encoding="UTF-8" standalone="no"?>
<svg
   xmlns:dc="http://purl.org/dc/elements/1.1/"
   xmlns:cc="http://creativecommons.org/ns#"
   xmlns:rdf="http://www.w3.org/1999/02/22-rdf-syntax-ns#"
   xmlns:svg="http://www.w3.org/2000/svg"
   xmlns="http://www.w3.org/2000/svg"
   xmlns:sodipodi="http://sodipodi.sourceforge.net/DTD/sodipodi-0.dtd"
   xmlns:inkscape="http://www.inkscape.org/namespaces/inkscape"
   version="1.1"
   id="svg2"
   xml:space="preserve"
   width="229.42667"
   height="42.653332"
   viewBox="0 0 229.42667 42.653332"
   sodipodi:docname="MB_Grocery23.eps"><metadata
     id="metadata8"><rdf:RDF><cc:Work
         rdf:about=""><dc:format>image/svg+xml</dc:format><dc:type
           rdf:resource="http://purl.org/dc/dcmitype/StillImage" /></cc:Work></rdf:RDF></metadata><defs
     id="defs6" /><sodipodi:namedview
     pagecolor="#ffffff"
     bordercolor="#666666"
     borderopacity="1"
     objecttolerance="10"
     gridtolerance="10"
     guidetolerance="10"
     inkscape:pageopacity="0"
     inkscape:pageshadow="2"
     inkscape:window-width="640"
     inkscape:window-height="480"
     id="namedview4" /><g
     id="g10"
     inkscape:groupmode="layer"
     inkscape:label="ink_ext_XXXXXX"
     transform="matrix(1.3333333,0,0,-1.3333333,0,42.653333)"><g
       id="g12"
       transform="scale(0.1)"><path
         d="m 131.586,291.645 c -2.141,2.148 -4.762,3.359 -7.68,3.359 -0.968,0 -1.941,-0.188 -2.816,-0.371 -0.973,3.914 -3.5,7.09 -7.777,10.355 -2.719,2.051 -5.633,3.36 -5.829,5.696 h 24.102 z M 39.168,273.637 c -2.4336,3.453 -5.25,6.531 -8.2617,8.961 v 0.09 c 0,7.371 -4.375,11.57 -8.4571,15.488 -3.0117,2.988 -4.4687,4.48 -4.4687,7 0,3.918 3.0117,5.508 7.3867,5.508 H 39.168 Z m 206.414,-16.145 v 53.192 h 10.207 c 5.145,0 6.996,-5.602 6.996,-14 v -37.512 l 11.563,-1.68 v 35.738 c 0,6.813 0.488,12.692 1.847,17.454 h 8.84 l -2.039,9.238 h -15.937 c -0.778,-2.059 -1.457,-4.109 -2.043,-6.164 -1.942,4.199 -4.567,6.164 -8.649,6.164 h -2.137 -1.843 -71.914 -2.043 -13.899 c -0.777,-2.059 -1.457,-4.109 -2.039,-6.164 -1.949,4.199 -4.57,6.164 -8.652,6.164 h -2.141 -1.844 -61.8042 -2.043 -13.9023 c -0.7735,-2.059 -1.4532,-4.109 -2.0352,-6.164 -1.9492,4.199 -4.5703,6.164 -8.6523,6.164 H 59.2852 57.4336 0.00390625 L 2.04297,310.684 H 5.63672 C 5.25,309.75 5.05078,308.625 5.05078,307.508 c 0,-4.762 3.10938,-7.371 5.73832,-9.61 4.7617,-4.011 7.4804,-6.718 8.0664,-10.171 h -0.0977 c -5.9297,0 -10.01171,-3.918 -10.01171,-8.68 0,-5.035 4.37501,-9.047 10.40231,-9.047 3.2032,0 6.1172,1.117 8.2579,3.266 4.8554,-3.176 8.8476,-7.746 11.7617,-14.094 l 11.5625,-1.68 v 53.192 h 8.7461 1.3593 c 5.1524,0 7,-5.602 7,-14 v -37.512 l 11.5625,-1.68 v 35.738 c 0,6.813 0.4883,12.692 1.8438,17.454 h 6.8086 2.039 4.4688 c 0.4883,-5.325 4.082,-7.375 11.6604,-11.481 4.277,-2.519 5.933,-4.57 5.933,-7.836 0,-1.773 -0.586,-3.359 -1.945,-4.949 -0.391,-0.371 -0.781,-0.84 -1.266,-1.301 -4.757,-4.668 -6.511,-5.324 -7.871,-5.324 -1.066,0 -2.3317,0.375 -3.695,3.359 l -7.0937,-4.664 c 3.0156,-6.718 7.7773,-9.707 12.8317,-9.707 3.399,0 7.094,1.403 12.922,7.098 4.664,4.476 7,8.207 10.11,8.207 2.621,0 5.441,-2.52 5.441,-7.367 v -17.547 l 11.566,-1.68 v 53.192 h 8.746 1.36 c 5.152,0 7,-5.602 7,-14 v -37.512 l 11.562,-1.68 v 35.738 c 0,6.813 0.489,12.692 1.848,17.454 h 6.805 2.039 51.508 v -13.438 c -3.016,3.449 -6.707,4.945 -10.692,4.945 -4.469,0 -7.969,-1.964 -10.207,-5.414 -3.105,3.641 -7.383,5.786 -12.926,5.786 -9.715,0 -16.808,-6.719 -16.808,-16.704 0,-11.754 10.008,-21.363 20.215,-21.363 6.414,0 10.105,3.731 10.105,8.395 0,4.574 -3.5,7.933 -7.969,7.933 -4.277,0 -7.386,-2.988 -7.386,-6.535 -2.532,1.399 -4.18,4.293 -4.18,7.93 0,5.508 3.789,9.054 9.039,9.054 4.473,0 7.582,-2.796 7.582,-7.187 l 9.324,-1.676 c 0,5.227 2.531,9.235 6.613,9.235 4.083,0 7.29,-4.387 7.29,-13.903 v -18.57 l 11.562,-1.68"
         style="fill:#b81e25;fill-opacity:1;fill-rule:nonzero;stroke:none"
         id="path14" /><path
         d="m 340.727,271.863 c -5.348,5.973 -12.344,11.664 -20.118,15.211 6.508,3.453 13.504,6.156 20.118,8.024 z m 194.074,0 c -5.348,5.973 -12.344,11.664 -20.121,15.211 6.515,3.453 13.511,6.156 20.121,8.024 z m -143.153,38.821 h 25.946 c -5.246,-4.387 -8.649,-9.707 -8.649,-15.489 0,-8.496 7.582,-15.773 16.91,-15.773 3.305,0 6.61,0.933 9.333,2.613 0.292,-0.84 0.386,-1.586 0.386,-2.336 0,-4.57 -4.273,-8.488 -11.367,-8.488 -11.273,0 -21.285,9.707 -24.785,34.434 l -9.524,-2.614 c 5.442,-30.605 20.02,-43.019 36.055,-43.019 12.731,0 19.051,7.558 19.051,17.261 0,6.719 -3.016,12.692 -9.524,18.012 -3.109,-4.012 -7.093,-6.719 -10.988,-6.719 -3.101,0 -5.242,1.868 -5.242,4.856 0,4.101 4.078,9.324 9.816,13.246 5.051,-8.027 12.532,-12.223 21.086,-12.223 0.387,0 0.68,0 1.071,0 -1.364,-4.199 -2.039,-8.957 -2.039,-13.906 0,-5.129 0.773,-13.43 2.914,-23.23 l 9.136,1.679 c -1.75,8.676 -2.14,14.371 -2.14,18.754 0,9.895 1.941,15.211 5.347,20.434 l -6.996,7.929 c -4.082,-1.585 -8.457,-2.14 -10.5,-2.14 -4.468,0 -8.164,2.426 -10.59,6.621 l 0.196,0.098 h 31.582 1.359 c 5.153,0 7,-5.602 7,-14 v -37.512 l 11.563,-1.68 v 35.738 c 0,6.813 0.488,12.692 1.843,17.454 h 6.801 2.043 36.059 v -3.739 c -11.078,-2.332 -24.008,-7.09 -36.25,-14.738 l 6.707,-12.879 c 13.797,-4.105 23.711,-11.101 29.543,-20.156 l 11.562,-1.68 v 53.192 h 10.59 l -2.035,9.238 h -58.219 -2.035 -13.898 c -0.778,-2.059 -1.457,-4.109 -2.043,-6.164 -1.942,4.199 -4.567,6.164 -8.649,6.164 h -2.136 -1.848 -76.485 -2.039 -13.898 c -0.773,-2.059 -1.457,-4.109 -2.039,-6.164 -1.945,4.199 -4.566,6.164 -8.649,6.164 h -2.136 -1.848 -58.406 l 2.039,-9.238 h 38.098 v -3.739 c -11.082,-2.332 -24.004,-7.09 -36.25,-14.738 l 6.703,-12.879 c 13.797,-4.105 23.711,-11.101 29.547,-20.156 l 11.558,-1.68 v 53.192 h 8.746 1.364 c 5.152,0 6.996,-5.602 6.996,-14 v -37.512 l 11.57,-1.68 v 35.738 c 0,6.813 0.48,12.692 1.844,17.454 h 6.8 2.043"
         style="fill:#21305a;fill-opacity:1;fill-rule:nonzero;stroke:none"
         id="path16" /><path
         d="m 514.098,268.504 c -4.274,0 -6.899,-2.703 -6.899,-6.531 0,-3.547 2.625,-6.438 6.801,-6.438 4.375,0 6.996,2.891 6.996,6.438 0,3.828 -2.621,6.531 -6.898,6.531"
         style="fill:#21305a;fill-opacity:1;fill-rule:nonzero;stroke:none"
         id="path18" /><path
         d="m 485.25,146.348 -0.43,0.175 -0.453,0.106 c -15.058,3.801 -30.5,7.812 -45.883,11.934 -19.464,5.687 -19.464,14.292 -19.464,17.125 0,5.671 2.472,9.96 7.769,13.503 6.07,4.071 14.981,6.133 26.469,6.133 11.457,0 20.527,-2.234 26.961,-6.64 5.906,-4.047 9.121,-9.274 9.824,-15.977 l 1.437,-13.781 20.934,17.558 -0.836,4.266 c -2.43,12.387 -9.086,22.199 -19.789,29.16 -10.18,6.617 -23.293,9.973 -38.973,9.973 -15.586,0 -29.148,-3.961 -40.3,-11.778 -11.973,-8.39 -18.047,-19.363 -18.047,-32.617 0,-12.234 5.176,-28.769 29.82,-38.078 l 0.774,-0.254 c 14.5,-3.711 29.464,-7.519 45.734,-11.64 17.402,-5.536 19.426,-13.379 19.426,-18.809 0,-6.379 -2.828,-11.1797 -8.899,-15.1054 -6.914,-4.4844 -16.062,-6.7578 -27.191,-6.7578 -12.164,0 -22.051,2.5585 -29.403,7.5976 -6.89,4.707 -10.828,11.4726 -12.042,20.6716 l -1.344,10.196 -22.739,-11.211 1.094,-5.535 c 3.164,-16.0278 10.68,-28.0864 22.367,-35.8716 10.461,-6.9062 24.09,-10.4023 40.512,-10.4023 18.192,0 33.074,4.0742 44.246,12.1015 11.914,8.586 17.953,20.293 17.953,34.8044 0,12.578 -5.121,29.582 -29.527,39.153"
         style="fill:#b81e25;fill-opacity:1;fill-rule:nonzero;stroke:none"
         id="path20" /><path
         d="m 827.957,122.547 c 0,-10.477 -4.098,-19.141 -12.535,-26.4728 -8.746,-7.5976 -19.762,-11.289 -33.688,-11.289 -12.246,0 -21.777,2.539 -28.332,7.5586 -6.109,4.6562 -8.957,10.2732 -8.957,17.6762 0,9.617 3.313,16.621 10.129,21.425 7.528,5.313 19.953,7.996 36.926,7.996 11.91,0 21.945,-0.8 29.82,-2.363 3.293,-0.664 5.371,-1.25 6.637,-1.687 z m -33.551,97.336 c -16.851,0 -30.894,-3.711 -41.781,-11.043 -8.316,-5.668 -14.172,-12.746 -17.395,-21.035 l -1.742,-4.481 13.043,-13.051 4.946,7.668 c 2.191,3.395 5.738,6.614 10.539,9.567 8.433,5.187 18.953,7.812 31.25,7.812 11.668,0 20.617,-2.3 26.609,-6.832 5.441,-4.125 8.082,-10.652 8.082,-19.965 v -2.855 c -0.559,-0.215 -1.445,-0.492 -2.777,-0.746 -5.367,-1.016 -15.821,-1.531 -31.075,-1.531 -23.332,0 -41.515,-4.387 -54.039,-13.02 -13.39,-9.23 -20.179,-22.629 -20.179,-39.824 0,-15.1486 6.019,-27.5587 17.89,-36.8947 11.336,-8.9062 26.493,-13.4296 45.047,-13.4296 12.719,0 24.567,2.9218 35.207,8.6836 3.629,1.9726 6.942,4.2148 9.926,6.746 V 60.1758 h 24.254 V 170.457 c 0,22.539 -10.031,49.426 -57.805,49.426"
         style="fill:#b81e25;fill-opacity:1;fill-rule:nonzero;stroke:none"
         id="path22" /><path
         d="m 633.348,122.547 c 0,-10.477 -4.102,-19.141 -12.535,-26.4728 -8.747,-7.5976 -19.766,-11.289 -33.692,-11.289 -12.246,0 -21.777,2.539 -28.336,7.5468 -6.105,4.668 -8.953,10.285 -8.953,17.688 0,9.617 3.309,16.621 10.125,21.425 7.531,5.313 19.957,7.996 36.934,7.996 11.906,0 21.937,-0.8 29.82,-2.363 3.293,-0.664 5.359,-1.25 6.637,-1.687 z m -33.563,97.336 c -16.84,0 -30.887,-3.711 -41.769,-11.047 -8.325,-5.668 -14.18,-12.75 -17.399,-21.035 l -1.738,-4.477 13.043,-13.051 4.945,7.668 c 2.188,3.391 5.727,6.61 10.539,9.567 8.438,5.187 18.949,7.812 31.239,7.812 11.675,0 20.625,-2.3 26.617,-6.832 5.437,-4.125 8.086,-10.652 8.086,-19.965 v -2.855 c -0.567,-0.215 -1.45,-0.492 -2.789,-0.746 -5.364,-1.016 -15.817,-1.531 -31.071,-1.531 -23.332,0 -41.515,-4.387 -54.039,-13.02 -13.386,-9.23 -20.179,-22.629 -20.179,-39.824 0,-15.1564 6.023,-27.5704 17.89,-36.8947 11.34,-8.9062 26.496,-13.4296 45.051,-13.4296 12.719,0 24.559,2.9218 35.203,8.6836 3.629,1.9726 6.945,4.2148 9.934,6.746 V 60.1758 h 24.246 V 170.457 c 0,22.539 -10.028,49.426 -57.809,49.426"
         style="fill:#b81e25;fill-opacity:1;fill-rule:nonzero;stroke:none"
         id="path24" /><path
         d="M 681.246,59.3164 H 705.91 V 278.637 H 681.246 V 59.3164"
         style="fill:#b81e25;fill-opacity:1;fill-rule:nonzero;stroke:none"
         id="path26" /><path
         d="m 347.285,122.547 c 0,-10.477 -4.097,-19.141 -12.539,-26.4728 -8.738,-7.5976 -19.758,-11.289 -33.683,-11.289 -12.247,0 -21.774,2.539 -28.336,7.5586 -6.11,4.6562 -8.954,10.2732 -8.954,17.6762 0,9.617 3.313,16.621 10.129,21.425 7.532,5.313 19.953,7.996 36.93,7.996 11.906,0 21.938,-0.8 29.82,-2.363 3.289,-0.664 5.36,-1.25 6.633,-1.687 z m -33.558,97.336 c -16.844,0 -30.887,-3.711 -41.778,-11.047 -8.32,-5.664 -14.172,-12.742 -17.39,-21.035 l -1.739,-4.477 13.035,-13.051 4.954,7.668 c 2.187,3.395 5.73,6.614 10.535,9.567 8.437,5.187 18.953,7.812 31.246,7.812 11.664,0 20.625,-2.3 26.609,-6.832 5.442,-4.125 8.086,-10.652 8.086,-19.965 v -2.855 c -0.562,-0.215 -1.449,-0.492 -2.781,-0.746 -5.371,-1.016 -15.824,-1.531 -31.074,-1.531 -23.66,0 -41.336,-4.262 -54.043,-13.02 -13.383,-9.23 -20.176,-22.629 -20.176,-39.824 0,-15.1564 6.019,-27.5587 17.891,-36.8947 11.339,-8.9062 26.496,-13.4296 45.05,-13.4296 12.719,0 24.563,2.9218 35.203,8.6836 3.629,1.9726 6.938,4.2148 9.93,6.746 V 60.1758 h 24.254 V 170.457 c 0,22.539 -10.027,49.426 -57.812,49.426"
         style="fill:#b81e25;fill-opacity:1;fill-rule:nonzero;stroke:none"
         id="path28" /><path
         d="m 170.73,219.883 c -13.519,0 -25.464,-3.164 -35.503,-9.41 -5.977,-3.711 -11.071,-8.325 -15.235,-13.785 -3.551,5.265 -8.086,9.777 -13.574,13.488 -9.5157,6.445 -21.1524,9.707 -34.5664,9.707 -13.418,0 -25.4297,-3.504 -35.7149,-10.418 -3.0781,-2.07 -5.9258,-4.399 -8.5273,-6.977 v 16.856 H 2.63281 V 60.5352 H 27.6094 v 89.5428 c 0,13.184 3.7656,23.899 11.5039,32.742 7.4844,8.559 17.2383,12.727 29.7969,12.727 24.3554,0 35.2108,-10.555 35.2108,-34.211 V 60.5352 h 24.984 v 97.0308 c 0,10.793 3.711,19.606 11.352,26.95 7.715,7.422 17.606,11.031 30.234,11.031 24.157,0 34.922,-10.555 34.922,-34.211 V 60.5352 h 24.985 V 162.215 c 0,18.512 -5.371,32.933 -15.961,42.883 -10.461,9.808 -25.231,14.785 -43.907,14.785"
         style="fill:#b81e25;fill-opacity:1;fill-rule:nonzero;stroke:none"
         id="path30" /><path
         d="m 1710.44,219.883 c -14.66,0 -27.35,-3.317 -37.79,-9.871 -4.37,-2.758 -8.31,-6.063 -11.84,-9.895 v 18.856 h -24.97 V 60.0586 h 24.97 v 82.5194 c 0,15.633 4.57,28.016 14.02,37.852 9.33,9.734 21.18,14.472 36.19,14.472 h 9.69 v 24.981 h -10.27"
         style="fill:#21305a;fill-opacity:1;fill-rule:nonzero;stroke:none"
         id="path32" /><path
         d="m 1523.45,131.445 c 7.54,5.313 19.97,7.996 36.94,7.996 11.91,0 21.94,-0.8 29.82,-2.363 3.29,-0.664 5.37,-1.25 6.63,-1.687 v -12.844 c 0,-10.477 -4.1,-19.141 -12.53,-26.4728 -8.73,-7.5976 -19.76,-11.289 -33.69,-11.289 -12.25,0 -21.78,2.539 -28.33,7.5468 -6.12,4.668 -8.96,10.285 -8.96,17.688 0,9.617 3.32,16.621 10.12,21.425 z m -16.79,-57.7927 c 11.34,-8.9062 26.5,-13.4296 45.04,-13.4296 12.74,0 24.57,2.9218 35.22,8.6836 3.63,1.9726 6.93,4.2148 9.92,6.746 V 60.1758 h 24.25 V 170.457 c 0,22.539 -10.03,49.426 -57.82,49.426 -16.83,0 -30.88,-3.711 -41.75,-11.047 -8.33,-5.664 -14.17,-12.742 -17.41,-21.035 l -1.73,-4.477 13.05,-13.051 4.94,7.68 c 2.19,3.383 5.73,6.602 10.53,9.555 8.45,5.187 18.96,7.812 31.25,7.812 11.67,0 20.64,-2.3 26.61,-6.832 5.44,-4.125 8.08,-10.652 8.08,-19.965 v -2.855 c -0.55,-0.215 -1.45,-0.492 -2.77,-0.746 -5.38,-1.016 -15.84,-1.531 -31.08,-1.531 -23.66,0 -41.35,-4.262 -54.05,-13.02 -13.38,-9.23 -20.16,-22.617 -20.16,-39.824 0,-15.1486 6.02,-27.5587 17.88,-36.8947"
         style="fill:#21305a;fill-opacity:1;fill-rule:nonzero;stroke:none"
         id="path34" /><path
         d="m 913.586,181.488 c 10.676,10.352 24.363,15.383 41.863,15.383 16.489,0.008 29.543,-5.129 39.922,-15.687 10.409,-10.59 15.479,-23.879 15.479,-40.618 0,-16.367 -4.97,-29.375 -15.194,-39.777 -10.195,-10.371 -23.066,-15.3984 -39.355,-15.3984 -18.301,0 -32.645,5.8555 -43.836,17.9104 -9.863,10.703 -14.66,22.613 -14.66,36.414 0,17.812 5.168,31.476 15.781,41.773 z M 897.805,82.4492 c 4.289,-4.3437 9.133,-8.0664 14.511,-11.1523 12.266,-7.0313 26.258,-10.5938 41.622,-10.5938 23.691,0 43.398,7.3828 58.582,21.9336 15.27,14.6367 23.01,34.1293 23.01,57.9293 0,23.926 -7.55,43.606 -22.43,58.52 -14.885,14.91 -34.553,22.469 -58.448,22.477 -14.746,0 -28.672,-3.711 -41.41,-11.012 -5.75,-3.301 -10.906,-7.317 -15.437,-12.016 v 79.188 H 873.117 V 60.2422 h 24.688 v 22.207"
         style="fill:#21305a;fill-opacity:1;fill-rule:nonzero;stroke:none"
         id="path36" /><path
         d="m 1336.55,84.6875 h -100.87 l 101.29,120.4145 -0.25,14.343 h -143.93 v -24.847 h 101.53 l -100.81,-120.4105 0.02,-14.3359 h 143.02 v 24.8359"
         style="fill:#21305a;fill-opacity:1;fill-rule:nonzero;stroke:none"
         id="path38" /><path
         d="m 1436.71,96.0742 c -8.75,-7.5976 -19.75,-11.289 -33.69,-11.289 -12.25,0 -21.78,2.539 -28.33,7.5468 -6.11,4.668 -8.96,10.285 -8.96,17.688 0,9.617 3.32,16.621 10.12,21.425 7.54,5.313 19.97,7.996 36.95,7.996 11.9,0 21.93,-0.8 29.82,-2.363 3.29,-0.664 5.36,-1.25 6.62,-1.687 v -12.844 c 0,-10.477 -4.09,-19.141 -12.53,-26.4728 z m 36.8,74.3828 c 0,22.539 -10.03,49.426 -57.81,49.426 -16.85,0 -30.9,-3.711 -41.78,-11.047 -8.33,-5.664 -14.17,-12.742 -17.39,-21.031 l -1.75,-4.481 13.05,-13.051 4.95,7.68 c 2.17,3.383 5.73,6.598 10.52,9.555 8.44,5.187 18.96,7.812 31.25,7.812 11.67,0 20.63,-2.3 26.61,-6.832 5.44,-4.125 8.08,-10.652 8.08,-19.965 v -2.855 c -0.55,-0.215 -1.44,-0.492 -2.76,-0.746 -5.37,-1.016 -15.83,-1.531 -31.09,-1.531 -23.67,0 -41.34,-4.262 -54.05,-13.02 -13.38,-9.23 -20.18,-22.629 -20.18,-39.824 0,-15.1564 6.04,-27.5704 17.91,-36.8947 11.33,-8.9062 26.49,-13.4296 45.03,-13.4296 12.74,0 24.58,2.9218 35.22,8.6836 3.63,1.9726 6.94,4.2148 9.92,6.746 V 60.1758 h 24.27 V 170.457"
         style="fill:#21305a;fill-opacity:1;fill-rule:nonzero;stroke:none"
         id="path40" /><path
         d="m 1082.52,131.445 c 7.53,5.313 19.95,7.996 36.94,7.996 11.9,0 21.93,-0.8 29.81,-2.363 3.29,-0.664 5.36,-1.25 6.63,-1.687 v -12.844 c 0,-10.477 -4.1,-19.141 -12.53,-26.4728 -8.74,-7.5976 -19.76,-11.289 -33.69,-11.289 -12.25,0 -21.78,2.539 -28.33,7.5468 -6.11,4.668 -8.96,10.285 -8.96,17.688 0,9.617 3.32,16.621 10.13,21.425 z m -16.8,-57.7927 c 11.34,-8.9062 26.5,-13.4296 45.05,-13.4296 12.73,0 24.57,2.9218 35.2,8.6836 3.63,1.9726 6.95,4.2148 9.93,6.746 V 60.1758 h 24.26 V 170.457 c 0,22.539 -10.03,49.426 -57.81,49.426 -16.85,0 -30.89,-3.711 -41.78,-11.047 -8.32,-5.668 -14.17,-12.742 -17.39,-21.035 l -1.74,-4.477 13.04,-13.051 4.96,7.68 c 2.17,3.379 5.72,6.598 10.52,9.555 8.44,5.187 18.96,7.812 31.25,7.812 11.67,0 20.63,-2.3 26.6,-6.832 5.45,-4.125 8.09,-10.652 8.09,-19.965 v -2.855 c -0.56,-0.215 -1.44,-0.492 -2.77,-0.746 -5.36,-1.016 -15.82,-1.531 -31.08,-1.531 -23.34,0 -41.52,-4.387 -54.04,-13.02 -13.39,-9.23 -20.18,-22.629 -20.18,-39.824 0,-15.1564 6.02,-27.5704 17.89,-36.8947"
         style="fill:#21305a;fill-opacity:1;fill-rule:nonzero;stroke:none"
         id="path42" /><path
         d="m 910.012,17.6953 c -1.114,-4.0039 -2.032,-7.5781 -2.586,-11.01561 h -0.215 c -0.773,3.43751 -1.75,7.01171 -3.02,11.08201 l -5.261,16.9844 h -5.196 l -5.546,-17.3359 c -1.125,-3.6407 -2.247,-7.293 -3.02,-10.73051 h -0.203 c -0.637,3.50391 -1.555,7.01171 -2.531,10.80081 l -4.5,17.2656 h -6.313 L 881.867,0.78125 h 5.625 l 5.469,16.14065 c 1.191,3.6445 2.246,7.1562 3.086,11.2304 h 0.137 c 0.847,-4.0039 1.836,-7.371 3.027,-11.1601 l 5.195,-16.21095 h 5.606 l 10.957,33.96485 h -6.114 l -4.843,-17.0508"
         style="fill:#21305a;fill-opacity:1;fill-rule:nonzero;stroke:none"
         id="path44" /><path
         d="m 962.492,17.6953 c -1.125,-4.0039 -2.031,-7.5781 -2.586,-11.01561 h -0.215 c -0.773,3.43751 -1.757,7.01171 -3.019,11.08201 l -5.274,16.9844 h -5.195 l -5.547,-17.3359 c -1.113,-3.6407 -2.246,-7.293 -3.008,-10.73051 h -0.214 c -0.633,3.50391 -1.543,7.01171 -2.528,10.80081 l -4.496,17.2656 h -6.316 L 934.348,0.78125 h 5.617 l 5.476,16.14065 c 1.192,3.6445 2.247,7.1562 3.086,11.2304 h 0.137 c 0.84,-4.0039 1.824,-7.371 3.02,-11.1601 l 5.195,-16.21095 h 5.613 l 10.949,33.96485 h -6.105 l -4.844,-17.0508"
         style="fill:#21305a;fill-opacity:1;fill-rule:nonzero;stroke:none"
         id="path46" /><path
         d="m 1014.96,17.6953 c -1.12,-4.0039 -2.03,-7.5781 -2.59,-11.01561 h -0.22 c -0.76,3.43751 -1.75,7.01171 -3.01,11.08201 l -5.27,16.9844 h -5.194 l -5.547,-17.3359 c -1.125,-3.6407 -2.246,-7.293 -3.02,-10.73051 h -0.214 c -0.625,3.50391 -1.543,7.01171 -2.52,10.80081 l -4.492,17.2656 h -6.317 L 986.809,0.78125 h 5.625 l 5.476,16.14065 c 1.195,3.6445 2.25,7.1562 3.09,11.2304 h 0.14 c 0.83,-4.0039 1.82,-7.371 3.01,-11.1601 l 5.2,-16.21095 h 5.61 l 10.95,33.96485 h -6.1 l -4.85,-17.0508"
         style="fill:#21305a;fill-opacity:1;fill-rule:nonzero;stroke:none"
         id="path48" /><path
         d="m 1032.07,8.84766 c -2.46,0 -4.22,-1.81641 -4.22,-4.41407 0,-2.53906 1.68,-4.43749625 4.14,-4.43749625 2.6,0 4.22,1.89843625 4.22,4.43749625 0,2.59766 -1.69,4.41407 -4.14,4.41407"
         style="fill:#21305a;fill-opacity:1;fill-rule:nonzero;stroke:none"
         id="path50" /><path
         d="m 1081.19,35.5273 c -3.23,0 -5.47,-0.8515 -7.52,-2.3945 -1.4,-1.0547 -2.73,-2.5273 -3.78,-4.4219 h -0.14 c -1.48,4.0039 -4.98,6.8164 -9.62,6.8164 -5.62,0 -8.77,-3.0312 -10.66,-6.25 h -0.22 l -0.28,5.4688 h -5.4 c 0.2,-2.8047 0.28,-5.6836 0.28,-9.1914 V 0.78125 h 6.04 V 21.2695 c 0,1.0547 0.13,2.1094 0.48,3.0274 0.99,3.0859 3.79,6.1719 7.66,6.1719 4.7,0 7.09,-3.9297 7.09,-9.336 V 0.78125 h 6.03 V 21.7656 c 0,1.125 0.21,2.2461 0.49,3.086 1.06,3.0195 3.79,5.6172 7.31,5.6172 4.98,0 7.37,-3.9297 7.37,-10.461 V 0.78125 h 6.04 V 20.7813 c 0,11.7968 -6.67,14.746 -11.17,14.746"
         style="fill:#21305a;fill-opacity:1;fill-rule:nonzero;stroke:none"
         id="path52" /><path
         d="m 1120.26,12.2148 c 0,-0.6367 -0.14,-1.3359 -0.36,-1.9609 -0.98,-2.88281 -3.78,-5.68359 -8.21,-5.68359 -3.15,0 -5.83,1.89453 -5.83,5.89849 0,6.5898 7.66,7.7929 14.4,7.6445 z m 5.96,9.4063 c 0,6.8164 -2.52,13.9062 -12.92,13.9062 -4.27,0 -8.35,-1.2031 -11.15,-3.0312 l 1.4,-4.0586 c 2.39,1.543 5.69,2.5156 8.84,2.5156 6.95,0 7.73,-5.0468 7.73,-7.8593 v -0.6915 c -13.13,0.0586 -20.43,-4.4335 -20.43,-12.63667 0,-4.92188 3.51,-9.76953625 10.39,-9.76953625 4.84,0 8.5,2.39453625 10.39,5.06249625 h 0.21 l 0.48,-4.27734 h 5.63 c -0.43,2.3125 -0.57,5.19531 -0.57,8.14453 V 21.6211"
         style="fill:#21305a;fill-opacity:1;fill-rule:nonzero;stroke:none"
         id="path54" /><path
         d="m 1147.11,20.5078 c -4.41,1.6797 -6.45,2.9375 -6.45,5.75 0,2.5274 2.04,4.6289 5.68,4.6289 3.15,0 5.63,-1.1211 6.95,-1.9609 l 1.55,4.4883 c -1.9,1.125 -4.92,2.1132 -8.35,2.1132 -7.31,0 -11.73,-4.4921 -11.73,-9.9726 0,-4.0703 2.88,-7.4414 8.98,-9.6172 4.56,-1.6797 6.33,-3.3008 6.33,-6.25 0,-2.80469 -2.12,-5.05078 -6.61,-5.05078 -3.09,0 -6.31,1.26172 -8.14,2.45312 l -1.55,-4.69921 c 2.39,-1.406255 5.83,-2.312505 9.55,-2.312505 8.08,0 12.71,4.207035 12.71,10.175775 0,5.0586 -3.01,8.0078 -8.92,10.2539"
         style="fill:#21305a;fill-opacity:1;fill-rule:nonzero;stroke:none"
         id="path56" /><path
         d="m 1181.85,12.2148 c 0,-0.6367 -0.14,-1.3359 -0.35,-1.9609 -0.99,-2.88281 -3.79,-5.68359 -8.22,-5.68359 -3.15,0 -5.83,1.89453 -5.83,5.89849 0,6.5898 7.66,7.7929 14.4,7.6445 z m 5.96,9.4063 c 0,6.8164 -2.52,13.9062 -12.92,13.9062 -4.28,0 -8.34,-1.2031 -11.16,-3.0312 l 1.41,-4.0586 c 2.38,1.543 5.69,2.5156 8.85,2.5156 6.94,0 7.72,-5.0468 7.72,-7.8593 v -0.6915 c -13.12,0.0586 -20.44,-4.4335 -20.44,-12.63667 0,-4.92188 3.52,-9.76953625 10.4,-9.76953625 4.85,0 8.5,2.39453625 10.39,5.06249625 h 0.21 l 0.49,-4.27734 h 5.61 c -0.42,2.3125 -0.56,5.19531 -0.56,8.14453 V 21.6211"
         style="fill:#21305a;fill-opacity:1;fill-rule:nonzero;stroke:none"
         id="path58" /><path
         d="m 1197.77,0.78125 h 6.17 V 50.6133 h -6.17 V 0.78125"
         style="fill:#21305a;fill-opacity:1;fill-rule:nonzero;stroke:none"
         id="path60" /><path
         d="m 1232.22,12.2148 c 0,-0.6367 -0.14,-1.3359 -0.35,-1.9609 -0.99,-2.88281 -3.79,-5.68359 -8.22,-5.68359 -3.15,0 -5.83,1.89453 -5.83,5.89849 0,6.5898 7.66,7.7929 14.4,7.6445 z m 5.97,9.4063 c 0,6.8164 -2.53,13.9062 -12.92,13.9062 -4.28,0 -8.35,-1.2031 -11.16,-3.0312 l 1.4,-4.0586 c 2.39,1.543 5.69,2.5156 8.85,2.5156 6.94,0 7.72,-5.0468 7.72,-7.8593 v -0.6915 c -13.12,0.0586 -20.43,-4.4335 -20.43,-12.63667 0,-4.92188 3.51,-9.76953625 10.39,-9.76953625 4.85,0 8.49,2.39453625 10.39,5.06249625 h 0.21 l 0.49,-4.27734 h 5.61 c -0.42,2.3125 -0.55,5.19531 -0.55,8.14453 V 21.6211"
         style="fill:#21305a;fill-opacity:1;fill-rule:nonzero;stroke:none"
         id="path62" /><path
         d="m 1263.78,4.92188 c -4.49,0 -8.07,2.94921 -9.27,7.22652 -0.13,0.7032 -0.28,1.4727 -0.28,2.2461 v 6.1133 c 0,0.9766 0.22,1.8164 0.35,2.5195 1.27,4.7071 5.2,7.5782 9.42,7.5782 6.59,0 10.1,-5.8203 10.1,-12.6367 0,-7.7852 -3.86,-13.04692 -10.32,-13.04692 z m 2.17,30.60542 c -5.47,0 -9.4,-2.4609 -11.57,-6.25 h -0.15 v 21.336 h -6.1 V 9.55078 c 0,-3.01953 -0.15,-6.45703 -0.29,-8.76953 h 5.34 l 0.28,5.60547 h 0.21 c 2.53,-4.49219 6.46,-6.39062625 11.37,-6.39062625 7.59,0 15.24,6.04687625 15.24,18.18750625 0.07,10.3203 -5.9,17.3437 -14.33,17.3437"
         style="fill:#21305a;fill-opacity:1;fill-rule:nonzero;stroke:none"
         id="path64" /><path
         d="m 1305.94,12.2148 c 0,-0.6367 -0.14,-1.3359 -0.35,-1.9609 -0.98,-2.88281 -3.79,-5.68359 -8.21,-5.68359 -3.16,0 -5.83,1.89453 -5.83,5.89849 0,6.5898 7.65,7.7929 14.39,7.6445 z m 5.98,9.4063 c 0,6.8164 -2.53,13.9062 -12.92,13.9062 -4.29,0 -8.36,-1.2031 -11.17,-3.0312 l 1.4,-4.0586 c 2.39,1.543 5.69,2.5156 8.85,2.5156 6.95,0 7.72,-5.0468 7.72,-7.8593 v -0.6915 c -13.12,0.0586 -20.43,-4.4335 -20.43,-12.63667 0,-4.92188 3.51,-9.76953625 10.39,-9.76953625 4.85,0 8.5,2.39453625 10.39,5.06249625 h 0.22 l 0.49,-4.27734 h 5.61 c -0.42,2.3125 -0.55,5.19531 -0.55,8.14453 V 21.6211"
         style="fill:#21305a;fill-opacity:1;fill-rule:nonzero;stroke:none"
         id="path66" /><path
         d="m 1325.72,5.82813 c 1.55,1.75781 2.95,3.44921 4.35,5.34377 l 15.17,19.7148 0.06,3.8594 h -25.89 v -4.9805 h 18.39 v -0.1367 c -1.55,-1.8281 -2.95,-3.4375 -4.43,-5.2734 L 1318,4.35547 V 0.78125 h 27.59 v 4.91016 h -19.87 v 0.13672"
         style="fill:#21305a;fill-opacity:1;fill-rule:nonzero;stroke:none"
         id="path68" /><path
         d="m 1369.79,12.2148 c 0,-0.6367 -0.14,-1.3359 -0.35,-1.9609 -0.99,-2.88281 -3.79,-5.68359 -8.22,-5.68359 -3.15,0 -5.83,1.89453 -5.83,5.89849 0,6.5898 7.66,7.7929 14.4,7.6445 z m 5.96,9.4063 c 0,6.8164 -2.53,13.9062 -12.92,13.9062 -4.27,0 -8.35,-1.2031 -11.15,-3.0312 l 1.4,-4.0586 c 2.39,1.543 5.69,2.5156 8.85,2.5156 6.94,0 7.72,-5.0468 7.72,-7.8593 v -0.6915 c -13.12,0.0586 -20.43,-4.4335 -20.43,-12.63667 0,-4.92188 3.51,-9.76953625 10.39,-9.76953625 4.85,0 8.5,2.39453625 10.39,5.06249625 h 0.21 l 0.49,-4.27734 h 5.61 c -0.42,2.3125 -0.56,5.19531 -0.56,8.14453 V 21.6211"
         style="fill:#21305a;fill-opacity:1;fill-rule:nonzero;stroke:none"
         id="path70" /><path
         d="m 1403.6,12.2148 c 0,-0.6367 -0.14,-1.3359 -0.36,-1.9609 -0.98,-2.88281 -3.78,-5.68359 -8.21,-5.68359 -3.15,0 -5.83,1.89453 -5.83,5.89849 0,6.5898 7.66,7.7929 14.4,7.6445 z m 5.96,9.4063 c 0,6.8164 -2.53,13.9062 -12.92,13.9062 -4.27,0 -8.35,-1.2031 -11.15,-3.0312 l 1.4,-4.0586 c 2.39,1.543 5.69,2.5156 8.84,2.5156 6.95,0 7.73,-5.0468 7.73,-7.8593 v -0.6915 c -13.13,0.0586 -20.43,-4.4335 -20.43,-12.63667 0,-4.92188 3.51,-9.76953625 10.39,-9.76953625 4.84,0 8.49,2.39453625 10.39,5.06249625 h 0.21 l 0.48,-4.27734 h 5.62 c -0.42,2.3125 -0.56,5.19531 -0.56,8.14453 V 21.6211"
         style="fill:#21305a;fill-opacity:1;fill-rule:nonzero;stroke:none"
         id="path72" /><path
         d="m 1425.13,28.0859 h -0.28 l -0.22,6.6602 h -5.4 c 0.21,-3.1563 0.28,-6.5938 0.28,-10.5977 V 0.78125 h 6.11 V 18.8867 c 0,1.0547 0.14,2.0274 0.28,2.8789 0.84,4.6289 3.93,7.9297 8.28,7.9297 0.85,0 1.48,-0.0664 2.11,-0.2031 v 5.8203 c -0.57,0.1367 -1.05,0.2148 -1.76,0.2148 -4.14,0 -7.86,-2.8828 -9.4,-7.4414"
         style="fill:#21305a;fill-opacity:1;fill-rule:nonzero;stroke:none"
         id="path74" /><path
         d="m 1441.47,8.84766 c -2.46,0 -4.21,-1.81641 -4.21,-4.41407 0,-2.53906 1.68,-4.43749625 4.14,-4.43749625 2.6,0 4.21,1.89843625 4.21,4.43749625 0,2.59766 -1.68,4.41407 -4.14,4.41407"
         style="fill:#21305a;fill-opacity:1;fill-rule:nonzero;stroke:none"
         id="path76" /><path
         d="m 1469.05,30.5352 c 3.36,0 5.68,-0.7696 7.15,-1.6094 l 1.41,4.7656 c -1.69,0.8477 -4.92,1.7578 -8.56,1.7578 -11.1,0 -18.26,-7.5781 -18.26,-18.039 0,-10.37895 6.67,-17.332075 16.92,-17.332075 4.57,0 8.14,1.121095 9.76,1.960935 l -1.05,4.64063 c -1.76,-0.78125 -4.07,-1.69141 -7.59,-1.69141 -6.74,0 -11.8,4.84375 -11.8,12.70702 0,7.0899 4.22,12.8399 12.02,12.8399"
         style="fill:#21305a;fill-opacity:1;fill-rule:nonzero;stroke:none"
         id="path78" /><path
         d="m 1498.37,4.63672 c -6.03,0 -10.32,5.61718 -10.32,13.05858 0,6.4531 3.15,13.1914 10.46,13.1914 7.3,0 10.17,-7.2929 10.17,-13.0586 0,-7.6445 -4.41,-13.19138 -10.31,-13.19138 z m 0.27,30.89058 c -9.39,0 -16.83,-6.6796 -16.83,-18.0468 0,-10.74222 7.09,-17.48440625 16.28,-17.48440625 8.21,0 16.91,5.48046625 16.91,18.05080625 0,10.3906 -6.59,17.4804 -16.36,17.4804"
         style="fill:#21305a;fill-opacity:1;fill-rule:nonzero;stroke:none"
         id="path80" /><path
         d="m 1560.12,35.5273 c -3.22,0 -5.47,-0.8515 -7.51,-2.3945 -1.41,-1.0547 -2.73,-2.5273 -3.79,-4.4219 h -0.15 c -1.46,4.0039 -4.98,6.8164 -9.62,6.8164 -5.6,0 -8.76,-3.0312 -10.66,-6.25 h -0.21 l -0.28,5.4688 h -5.41 c 0.22,-2.8047 0.29,-5.6836 0.29,-9.1914 V 0.78125 h 6.03 V 21.2695 c 0,1.0547 0.15,2.1094 0.5,3.0274 0.98,3.0859 3.79,6.1719 7.65,6.1719 4.69,0 7.09,-3.9297 7.09,-9.336 V 0.78125 h 6.03 V 21.7656 c 0,1.125 0.22,2.2461 0.49,3.086 1.05,3.0195 3.8,5.6172 7.3,5.6172 4.98,0 7.38,-3.9297 7.38,-10.461 V 0.78125 h 6.03 V 20.7813 c 0,11.7968 -6.67,14.746 -11.16,14.746"
         style="fill:#21305a;fill-opacity:1;fill-rule:nonzero;stroke:none"
         id="path82" /><path
         d="m 1584.02,8.84766 c -2.47,0 -4.21,-1.81641 -4.21,-4.41407 0,-2.53906 1.68,-4.43749625 4.14,-4.43749625 2.6,0 4.21,1.89843625 4.21,4.43749625 0,2.59766 -1.68,4.41407 -4.14,4.41407"
         style="fill:#21305a;fill-opacity:1;fill-rule:nonzero;stroke:none"
         id="path84" /><path
         d="m 1611.46,4.92188 c -4.49,0 -8.08,2.94921 -9.27,7.22652 -0.14,0.7032 -0.27,1.4727 -0.27,2.2461 v 6.1133 c 0,0.9766 0.2,1.8164 0.35,2.5195 1.26,4.7071 5.19,7.5782 9.4,7.5782 6.59,0 10.11,-5.8203 10.11,-12.6367 0,-7.7852 -3.87,-13.04692 -10.32,-13.04692 z m 2.17,30.60542 c -5.46,0 -9.4,-2.4609 -11.58,-6.25 h -0.13 v 21.336 h -6.12 V 9.55078 c 0,-3.01953 -0.14,-6.45703 -0.28,-8.76953 h 5.34 l 0.27,5.60547 h 0.22 c 2.53,-4.49219 6.46,-6.39062625 11.37,-6.39062625 7.58,0 15.23,6.04687625 15.23,18.18750625 0.08,10.3203 -5.9,17.3437 -14.32,17.3437"
         style="fill:#21305a;fill-opacity:1;fill-rule:nonzero;stroke:none"
         id="path86" /><path
         d="m 1658.88,15.0273 c 0,-0.9882 -0.07,-1.8242 -0.28,-2.664 -1.13,-4.64064 -4.92,-7.37502 -9.06,-7.37502 -6.67,0 -10.04,5.68362 -10.04,12.57032 0,7.5 3.79,13.125 10.19,13.125 4.63,0 8,-3.2344 8.91,-7.168 0.21,-0.7617 0.28,-1.8164 0.28,-2.6015 z m 6.18,35.586 h -6.18 V 30.3281 h -0.15 c -1.54,2.7383 -5.05,5.1992 -10.24,5.1992 -8.28,0 -15.3,-6.9531 -15.24,-18.2539 0,-10.32027 6.32,-17.27730625 14.54,-17.27730625 5.54,0 9.68,2.88281625 11.58,6.68359625 h 0.14 l 0.28,-5.89844 h 5.54 c -0.21,2.3125 -0.27,5.75 -0.27,8.76953 V 50.6133"
         style="fill:#21305a;fill-opacity:1;fill-rule:nonzero;stroke:none"
         id="path88" /></g></g></svg>
